<svg width="19" height="19" viewBox="0 0 19 19" fill="none" xmlns="http://www.w3.org/2000/svg">
<path d="M9.5 0C7.62108 0 5.78435 0.557165 4.22209 1.60104C2.65982 2.64491 1.44218 4.12861 0.723149 5.86451C0.00411623 7.6004 -0.184015 9.51054 0.182544 11.3534C0.549104 13.1962 1.45389 14.8889 2.78249 16.2175C4.11109 17.5461 5.80383 18.4509 7.64664 18.8175C9.48946 19.184 11.3996 18.9959 13.1355 18.2769C14.8714 17.5578 16.3551 16.3402 17.399 14.7779C18.4428 13.2156 19 11.3789 19 9.5C18.997 6.98135 17.9952 4.56672 16.2142 2.78577C14.4333 1.00482 12.0186 0.00297132 9.5 0ZM9.5 17.2727C7.9627 17.2727 6.45992 16.8169 5.18171 15.9628C3.90349 15.1087 2.90724 13.8948 2.31894 12.4745C1.73064 11.0542 1.57671 9.49138 1.87663 7.98361C2.17654 6.47585 2.91682 5.09089 4.00385 4.00385C5.09089 2.91682 6.47586 2.17654 7.98362 1.87662C9.49138 1.57671 11.0542 1.73064 12.4745 2.31894C13.8948 2.90724 15.1087 3.90349 15.9628 5.1817C16.8169 6.45992 17.2727 7.9627 17.2727 9.5C17.2704 11.5608 16.4508 13.5364 14.9936 14.9936C13.5365 16.4508 11.5608 17.2704 9.5 17.2727Z" fill="#0073E9"/>
<path d="M13.2406 6.71561L8.71081 10.9136L6.72313 8.90415C6.6442 8.82153 6.54978 8.75563 6.44539 8.7103C6.34099 8.66496 6.22872 8.6411 6.1151 8.6401C6.00149 8.6391 5.88882 8.66099 5.78366 8.70448C5.6785 8.74798 5.58297 8.81221 5.50263 8.89343C5.42229 8.97465 5.35875 9.07123 5.31573 9.17754C5.27271 9.28385 5.25106 9.39776 5.25205 9.51262C5.25303 9.62748 5.27664 9.74099 5.32148 9.84653C5.36633 9.95207 5.43151 10.0475 5.51324 10.1273L8.0802 12.7224C8.23612 12.8801 8.44624 12.9708 8.66672 12.9756C8.88721 12.9805 9.10102 12.8991 9.26356 12.7484L14.3975 7.99067C14.5647 7.83558 14.6642 7.61968 14.674 7.39045C14.6838 7.16123 14.6031 6.93746 14.4497 6.76837C14.2963 6.59929 14.0827 6.49874 13.856 6.48884C13.6292 6.47895 13.4079 6.56052 13.2406 6.71561Z" fill="#0073E9"/>
</svg>
