<svg width="110" height="110" viewBox="0 0 110 110" fill="none" xmlns="http://www.w3.org/2000/svg">
<rect width="110" height="110" rx="26" fill="#9E6FF7"/>
<path d="M45.01 61H31C27.7 61 25 63.7 25 67V85H45.01V61Z" fill="white" stroke="#292D32" stroke-width="1.5" stroke-miterlimit="10" stroke-linecap="round" stroke-linejoin="round"/>
<path d="M58.9905 49H50.9805C47.6805 49 44.9805 51.7 44.9805 55V85H64.9905V55C64.9905 51.7 62.3205 49 58.9905 49Z" fill="#DCFC17" stroke="#292D32" stroke-width="1.5" stroke-miterlimit="10" stroke-linecap="round" stroke-linejoin="round"/>
<path d="M79.0002 70H64.9902V85H85.0002V76C85.0002 72.7 82.3002 70 79.0002 70Z" fill="white" stroke="#292D32" stroke-width="1.5" stroke-miterlimit="10" stroke-linecap="round" stroke-linejoin="round"/>
<path d="M56.5607 25.2104L58.1507 28.3904C58.3607 28.8404 58.9307 29.2604 59.4107 29.3204L62.2907 29.8004C64.1207 30.1004 64.5707 31.4504 63.2507 32.7404L61.0007 34.9904C60.6107 35.3804 60.4007 36.1004 60.5207 36.6104L61.1507 39.3704C61.6607 41.5604 60.4907 42.4005 58.5707 41.2605L55.8707 39.6705C55.3907 39.3705 54.5807 39.3705 54.1007 39.6705L51.4007 41.2605C49.4807 42.4005 48.3107 41.5604 48.8207 39.3704L49.4507 36.6104C49.5707 36.1004 49.3607 35.3504 48.9707 34.9904L46.7507 32.7704C45.4307 31.4504 45.8507 30.1304 47.7107 29.8304L50.5907 29.3505C51.0707 29.2605 51.6407 28.8405 51.8507 28.4205L53.4407 25.2404C54.3107 23.5004 55.6907 23.5004 56.5607 25.2104Z" fill="#DCFC17" stroke="#292D32" stroke-width="1.5" stroke-linecap="round" stroke-linejoin="round"/>
</svg>
