<svg width="110" height="110" viewBox="0 0 110 110" fill="none" xmlns="http://www.w3.org/2000/svg">
<rect width="110" height="110" rx="26" fill="#9E6FF7"/>
<path d="M69.8809 37.5098C75.8809 41.6798 80.0209 48.3098 80.8609 55.9598" stroke="#292D32" stroke-width="1.5" stroke-linecap="round" stroke-linejoin="round"/>
<path d="M29.4707 56.1102C30.2507 48.4902 34.3307 41.8602 40.2707 37.6602" stroke="#292D32" stroke-width="1.5" stroke-linecap="round" stroke-linejoin="round"/>
<path d="M43.5703 81.8203C47.0503 83.5903 51.0103 84.5803 55.1803 84.5803C59.2003 84.5803 62.9803 83.6803 66.3703 82.0303" stroke="#292D32" stroke-width="1.5" stroke-linecap="round" stroke-linejoin="round"/>
<path d="M55.1798 42.0999C59.7859 42.0999 63.5198 38.366 63.5198 33.7599C63.5198 29.1539 59.7859 25.4199 55.1798 25.4199C50.5738 25.4199 46.8398 29.1539 46.8398 33.7599C46.8398 38.366 50.5738 42.0999 55.1798 42.0999Z" fill="#DCFC17" stroke="#292D32" stroke-width="1.5" stroke-linecap="round" stroke-linejoin="round"/>
<path d="M33.4904 78.7601C38.0964 78.7601 41.8304 75.0261 41.8304 70.4201C41.8304 65.814 38.0964 62.0801 33.4904 62.0801C28.8843 62.0801 25.1504 65.814 25.1504 70.4201C25.1504 75.0261 28.8843 78.7601 33.4904 78.7601Z" fill="#DCFC17" stroke="#292D32" stroke-width="1.5" stroke-linecap="round" stroke-linejoin="round"/>
<path d="M76.5099 78.7601C81.116 78.7601 84.8499 75.0261 84.8499 70.4201C84.8499 65.814 81.116 62.0801 76.5099 62.0801C71.9039 62.0801 68.1699 65.814 68.1699 70.4201C68.1699 75.0261 71.9039 78.7601 76.5099 78.7601Z" fill="white" stroke="#292D32" stroke-width="1.5" stroke-linecap="round" stroke-linejoin="round"/>
</svg>
