<svg width="110" height="110" viewBox="0 0 110 110" fill="none" xmlns="http://www.w3.org/2000/svg">
<rect width="110" height="110" rx="26" fill="#9E6FF7"/>
<path d="M51.2506 26.3509C53.3206 24.5809 56.7106 24.5809 58.8106 26.3509L63.5506 30.4309C64.4506 31.2109 66.1306 31.8409 67.3306 31.8409H72.4306C75.6106 31.8409 78.2206 34.4509 78.2206 37.6309V42.7309C78.2206 43.9009 78.8506 45.6109 79.6306 46.5109L83.7106 51.2509C85.4806 53.3209 85.4806 56.7109 83.7106 58.8109L79.6306 63.5509C78.8506 64.4509 78.2206 66.1309 78.2206 67.3309V72.4309C78.2206 75.6109 75.6106 78.2209 72.4306 78.2209H67.3306C66.1606 78.2209 64.4506 78.8509 63.5506 79.6309L58.8106 83.7109C56.7406 85.4809 53.3506 85.4809 51.2506 83.7109L46.5106 79.6309C45.6106 78.8509 43.9306 78.2209 42.7306 78.2209H37.5406C34.3606 78.2209 31.7506 75.6109 31.7506 72.4309V67.3009C31.7506 66.1309 31.1206 64.4509 30.3706 63.5509L26.3206 58.7809C24.5806 56.7109 24.5806 53.3509 26.3206 51.2809L30.3706 46.5109C31.1206 45.6109 31.7506 43.9309 31.7506 42.7609V37.6009C31.7506 34.4209 34.3606 31.8109 37.5406 31.8109H42.7306C43.9006 31.8109 45.6106 31.1809 46.5106 30.4009L51.2506 26.3509Z" fill="#DCFC17" stroke="#292D32" stroke-width="1.5" stroke-linecap="round" stroke-linejoin="round"/>
<path d="M44.1406 55.0002L51.3706 62.2602L65.8606 47.7402" stroke="#292D32" stroke-width="1.5" stroke-linecap="round" stroke-linejoin="round"/>
</svg>
