<svg width="110" height="110" viewBox="0 0 110 110" fill="none" xmlns="http://www.w3.org/2000/svg">
<rect width="110" height="110" rx="26" fill="#9E6FF7"/>
<path d="M25 64.8705V36.1305C25 32.1405 27.31 31.1805 30.13 34.0005L37.9 41.7705C39.07 42.9405 40.99 42.9405 42.13 41.7705L52.87 31.0005C54.04 29.8305 55.96 29.8305 57.1 31.0005L67.87 41.7705C69.04 42.9405 70.96 42.9405 72.1 41.7705L79.87 34.0005C82.69 31.1805 85 32.1405 85 36.1305V64.9005C85 73.9005 79 79.9005 70 79.9005H40C31.72 79.8705 25 73.1505 25 64.8705Z" fill="#DCFC17" stroke="#292D32" stroke-width="1.5" stroke-linecap="round" stroke-linejoin="round"/>
</svg>
